<svg width="175" height="54" viewBox="0 0 175 54" fill="none" xmlns="http://www.w3.org/2000/svg">
<path fill-rule="evenodd" clip-rule="evenodd" d="M25.1834 0.047708C16.7176 0.703603 9.16495 5.108 4.50124 12.1087C0.516988 18.0895 -0.895332 25.3752 0.557231 32.4544C2.38418 41.3578 8.76099 48.8561 17.336 52.1838C20.7814 53.5209 25.0459 54.1884 28.644 53.9537C34.003 53.6043 38.6281 51.9793 42.9603 48.9241C45.5222 47.1174 48.0526 44.4817 49.8844 41.7121C50.7991 40.3291 52.11 37.7244 52.6545 36.2085C53.3831 34.1795 53.9406 31.7188 54.1572 29.575C54.272 28.4387 54.2725 25.5613 54.1581 24.4169C53.4247 17.077 49.8357 10.5122 44.0053 5.84535C40.1723 2.77721 35.396 0.794721 30.3482 0.176558C28.9964 0.0110016 26.4703 -0.0519681 25.1834 0.047708ZM30.6865 3.11979C38.5498 4.30341 45.2721 9.15588 48.8131 16.2045C51.4568 21.4666 52.0744 27.3372 50.5923 33.1148C49.8141 36.1483 48.256 39.2731 46.2245 41.8746C45.3838 42.9512 43.401 44.9597 42.3806 45.7683C38.9151 48.5143 34.7389 50.3 30.3732 50.9024C28.7119 51.1317 28.3542 51.1095 27.3987 50.718C26.9411 50.5305 26.2681 50.2082 25.9032 50.0017C25.0824 49.5373 23.9301 48.4688 23.4724 47.7477C22.8858 46.8236 22.8497 46.81 20.8411 46.7599C19.1539 46.7177 19.1117 46.7121 18.6055 46.4656C17.883 46.1138 16.7215 44.9554 16.5849 44.4503C16.5263 44.2339 16.4793 43.3054 16.4706 42.1916C16.4565 40.3829 16.4469 40.2838 16.253 39.9218C15.9977 39.4455 15.3225 38.7713 14.6401 38.3113C13.5981 37.6088 13.445 37.1629 13.8896 36.1268C14.4576 34.803 14.4261 34.2741 13.7538 33.8449C13.2084 33.4966 12.0316 32.2739 11.5954 31.6024C11.1623 30.9356 11.0541 30.5478 11.0621 29.6911C11.0694 28.9126 11.2123 28.441 11.6063 27.895C11.8484 27.5596 11.8735 27.4697 11.8396 27.0618C11.8053 26.6516 11.7481 26.5414 11.283 25.9902C10.2085 24.7168 9.97451 23.997 9.9028 21.7449C9.84381 19.8916 9.93212 19.2883 10.4179 18.2262C10.8176 17.3523 10.9181 16.7149 10.717 16.3299C10.6473 16.1964 10.4492 15.8584 10.277 15.5789C10.0072 15.1409 9.96393 14.9988 9.96437 14.5522C9.96497 13.8522 10.086 13.4658 10.4411 13.0306C11.0224 12.3179 11.1944 11.8317 11.2513 10.7397C11.3187 9.45055 11.4794 9.14408 12.7568 7.86899C13.7929 6.83476 14.3981 6.40114 15.9017 5.61528C18.4871 4.26414 21.4206 3.35943 24.2375 3.04441C24.6868 2.99418 25.1898 2.93746 25.3554 2.91829C26.1695 2.82409 29.5777 2.95286 30.6865 3.11979ZM21.5998 7.97089C20.7276 8.27839 20.0103 9.28055 20.0015 10.2039C19.9882 11.6166 20.955 12.6754 22.3458 12.7715C23.1413 12.8264 23.7374 12.589 24.3062 11.9906C24.9918 11.2693 25.1844 10.3504 24.8412 9.43823C24.6025 8.80381 24.235 8.39894 23.6207 8.0935C23.1834 7.87609 22.9944 7.83194 22.5256 7.8375C22.2139 7.84118 21.7973 7.90125 21.5998 7.97089ZM35.3727 10.3805C35.0058 10.6133 34.8437 10.8215 34.7433 11.1889C34.5831 11.7755 34.8707 12.382 35.4515 12.6825C35.7728 12.8488 36.4285 12.7921 36.7342 12.5717C36.9958 12.383 37.3074 11.8058 37.3074 11.5098C37.3074 11.2127 36.9955 10.6363 36.7318 10.446C36.3998 10.2065 35.7002 10.1728 35.3727 10.3805ZM68.0623 11.371C67.1981 11.6119 66.4768 12.3668 66.2921 13.2238C66.1653 13.8123 66.1616 35.3043 66.2882 36.3088C66.4936 37.9388 67.1597 39.2632 68.3836 40.4758C69.2846 41.3685 69.9301 41.815 70.813 42.1561C72.1787 42.6838 72.2635 42.6921 76.3021 42.6941C80.3985 42.6962 80.3495 42.7019 81.0669 42.1377C81.6704 41.6631 81.9789 41.0073 81.9718 40.2148C81.9652 39.4819 81.7611 38.9888 81.259 38.4917C80.5626 37.8023 80.7053 37.8245 76.6461 37.7764C73.0944 37.7343 73.028 37.7303 72.6332 37.5368C72.4125 37.4286 72.0709 37.1664 71.8743 36.9542C71.1725 36.1965 71.2341 37.3141 71.186 24.472C71.144 13.289 71.1388 12.9987 70.9738 12.6676C70.7469 12.2122 70.2179 11.6994 69.7732 11.5036C69.2764 11.2849 68.5679 11.23 68.0623 11.371ZM92.4091 11.3677C91.7784 11.5441 91.2199 12.0098 90.8533 12.6648L90.6618 13.0071L90.6363 23.0602C90.6098 33.4685 90.6175 33.7492 90.9665 35.0748C91.736 37.9984 94.3191 40.8761 97.1481 41.9614C100.626 43.2955 104.425 42.8062 107.301 40.6539C109.561 38.9616 110.977 36.684 111.45 33.9756C111.53 33.519 111.556 30.8883 111.556 23.2741C111.556 13.1896 111.556 13.1777 111.375 12.7888C110.933 11.8371 110.096 11.2989 109.066 11.3032C108.324 11.3062 107.81 11.5153 107.301 12.022C106.603 12.7167 106.661 11.7939 106.61 23.103C106.568 32.4247 106.552 33.2383 106.412 33.7123C105.951 35.2702 104.957 36.4771 103.561 37.174C102.799 37.554 102.055 37.7156 101.066 37.7156C99.4577 37.7156 98.3307 37.2488 97.1964 36.1129C96.4074 35.3226 96.0254 34.6749 95.7758 33.7041C95.6116 33.0648 95.606 32.7225 95.606 23.2275C95.606 12.1665 95.6488 12.8877 94.948 12.1122C94.3323 11.4308 93.2834 11.1233 92.4091 11.3677ZM131.438 11.3405C128.884 11.6308 126.542 12.8756 124.749 14.8966C123.531 16.2689 122.8 17.7331 122.379 19.6379C122.227 20.3253 122.219 20.9265 122.219 30.6322V40.8993L122.474 41.3582C122.945 42.2035 123.724 42.6731 124.669 42.6804C125.652 42.688 126.532 42.1345 126.957 41.2415L127.161 40.8137L127.165 31.06C127.168 23.0081 127.19 21.1868 127.291 20.6219C127.736 18.1389 130.065 16.2241 132.648 16.217C133.29 16.2153 134.323 16.4147 134.861 16.6443C135.932 17.1011 137.079 18.189 137.604 19.2452C138.187 20.419 138.166 19.9976 138.168 30.8091C138.169 41.7099 138.136 41.1021 138.774 41.8231C139.794 42.9763 141.528 42.9799 142.545 41.8308C143.196 41.0949 143.156 41.8147 143.156 30.7239C143.156 22.3433 143.136 20.6704 143.028 20.0082C142.667 17.7952 141.707 15.9588 140.056 14.3259C138.092 12.3833 135.878 11.4234 133.088 11.3059C132.548 11.2832 131.806 11.2988 131.438 11.3405ZM163.006 11.3506C159.099 11.7963 155.587 14.6205 154.342 18.3189C153.806 19.9103 153.819 19.6153 153.819 30.6549C153.819 38.2525 153.844 40.7943 153.922 41.0605C154.078 41.5872 154.937 42.4138 155.495 42.5731C156 42.7173 156.676 42.7165 157.118 42.5714C157.65 42.3965 158.247 41.8592 158.518 41.3106L158.763 40.8137L158.787 36.0438L158.811 31.2739H164.265H169.718L169.743 36.0438C169.769 40.7186 169.773 40.8217 169.954 41.2121C170.185 41.7088 170.72 42.2337 171.253 42.4858C171.76 42.7253 172.694 42.7465 173.196 42.5299C173.663 42.3282 174.362 41.6536 174.576 41.1987C174.755 40.8161 174.756 40.756 174.782 31.445C174.809 21.4233 174.779 20.4137 174.413 18.9962C174.134 17.9199 173.422 16.4506 172.743 15.5543C172.102 14.7084 170.884 13.5456 170.084 13.0166C168.025 11.6546 165.517 11.0642 163.006 11.3506ZM12.1747 12.4186C12.1453 12.4478 12.2259 12.6692 12.3537 12.9105C12.5619 13.3033 12.5863 13.4396 12.5863 14.2125C12.5864 15.0192 12.5681 15.111 12.3062 15.6163C12.1521 15.9137 12.0416 16.1725 12.0607 16.1915C12.1517 16.282 12.801 16.2201 13.0376 16.0984C13.5276 15.8462 13.9192 15.0574 13.9192 14.3226C13.9192 13.9 13.6972 13.2565 13.4322 12.9107C13.1502 12.5429 12.3604 12.2338 12.1747 12.4186ZM165.943 16.465C167.496 16.9481 168.809 18.1935 169.451 19.7921L169.681 20.3651L169.709 23.3811L169.736 26.397H164.271H158.806L158.807 23.6378C158.808 20.5476 158.854 20.1884 159.367 19.2168C160.187 17.6636 161.607 16.5981 163.257 16.298C163.901 16.1807 165.31 16.2683 165.943 16.465ZM31.9333 20.0568C30.1444 20.8809 30.7369 23.5736 32.7072 23.5736C34.71 23.5736 35.2678 20.7957 33.4193 20.0274C32.9922 19.8499 32.3551 19.8625 31.9333 20.0568ZM8.28918 25.4773C8.33433 25.5988 8.76005 28.4878 8.76005 28.6723C8.76005 29.0181 7.5209 28.5043 7.01883 27.9502C6.73223 27.634 6.69647 27.5445 6.69724 27.1454C6.69775 26.8537 6.76964 26.5435 6.9024 26.2598C7.07386 25.8935 7.18031 25.7867 7.56338 25.5967C8.07078 25.3451 8.23046 25.3188 8.28918 25.4773ZM13.5753 28.2319C13.5753 28.5067 14.6974 32.4215 14.793 32.4803C14.9495 32.5765 15.6056 31.9961 15.8016 31.588C16.0375 31.097 16.1156 30.2842 15.9806 29.7243C15.8219 29.0661 15.2574 28.5251 14.48 28.2861C13.7977 28.0765 13.5753 28.0631 13.5753 28.2319ZM28.3704 30.6824C27.9192 30.8289 27.718 30.9606 27.2811 31.3953C26.8151 31.859 26.7205 32.0096 26.5553 32.5505C26.1347 33.9286 26.7171 35.2832 28.0004 35.9112C28.5178 36.1644 28.6528 36.1934 29.3094 36.1916C29.9327 36.1899 30.1147 36.1542 30.5329 35.9515C31.0833 35.6848 31.6004 35.153 31.9016 34.5436C32.2012 33.9373 32.1903 32.8661 31.8776 32.2024C31.2488 30.8679 29.7713 30.2276 28.3704 30.6824ZM44.308 33.62C43.3517 34.0344 43.2999 35.4923 44.2259 35.9295C44.9316 36.2627 45.7058 36.0017 46.0045 35.3299C46.4874 34.2436 45.3995 33.1472 44.308 33.62ZM13.6221 41.4982C14.1143 42.5335 14.5179 43.4287 14.5191 43.4874C14.5204 43.5597 14.3749 43.5942 14.0697 43.5939C13.1521 43.5929 12.4316 43.2312 12.0472 42.5786C11.8563 42.2544 11.8134 42.0634 11.7846 41.4097C11.7585 40.8137 11.7825 40.5665 11.8858 40.3677C12.0957 39.9638 12.4666 39.5621 12.6035 39.5904C12.6716 39.6044 13.1299 40.4629 13.6221 41.4982ZM18.24 41.7147C18.1336 41.7573 18.0465 41.8167 18.0465 41.8467C18.0465 41.8767 18.6173 42.6739 19.3148 43.6183C20.0124 44.5627 20.6098 45.3752 20.6424 45.424C20.7383 45.5675 21.0211 45.2519 21.2303 44.7682C21.6679 43.7557 21.0793 42.2466 20.0672 41.7866C19.6934 41.6168 18.5932 41.5735 18.24 41.7147ZM29.8168 44.8401C29.1283 45.0511 28.5378 45.8585 28.5378 46.5889C28.5378 47.5493 29.4645 48.4687 30.4347 48.4707C31.232 48.4725 32.0573 47.7941 32.2385 46.9881C32.4533 46.0333 31.859 45.0614 30.9015 44.8011C30.4684 44.6834 30.3099 44.689 29.8168 44.8401Z" fill="white"/>
</svg>
